<svg id="frappe-symbols" aria-hidden="true" style="position: absolute; width: 0; height: 0; overflow: hidden;" class="d-block" xmlns="http://www.w3.org/2000/svg">
    <symbol viewBox="0 0 64 80" id="icon-crops" xmlns="http://www.w3.org/2000/svg">
        <path d="M31 2h2v2h-2zM52 60v-5h1a8.009 8.009 0 0 0 8-8 1 1 0 0 0-1-1h-2a8 8 0 0 0-7 4.136A8 8 0 0 0 44 46h-2a1 1 0 0 0-1 1 8.009 8.009 0 0 0 8 8h1v5H33V49h1a8.009 8.009 0 0 0 8-8 1 1 0 0 0-1-1h-2a7.945 7.945 0 0 0-3.038.6A4.809 4.809 0 0 0 36 40c0-3.227-3.263-5.7-3.4-5.8a1 1 0 0 0-1.2 0c-.139.1-3.4 2.575-3.4 5.8a4.809 4.809 0 0 0 .038.6A7.945 7.945 0 0 0 25 40h-2a1 1 0 0 0-1 1 8.009 8.009 0 0 0 8 8h1v3.026A4.948 4.948 0 0 0 28 51h-2a1 1 0 0 0-1 1 5.006 5.006 0 0 0 5 5h1v3H14v-5h1a8.009 8.009 0 0 0 8-8 1 1 0 0 0-1-1h-2a8 8 0 0 0-7 4.136A8 8 0 0 0 6 46H4a1 1 0 0 0-1 1 8.009 8.009 0 0 0 8 8h1v5H2v2h60v-2Zm6-12h.917A6.01 6.01 0 0 1 53 53h-.917A6.01 6.01 0 0 1 58 48Zm-9 5a6.01 6.01 0 0 1-5.917-5H44a6.01 6.01 0 0 1 5.917 5Zm-19 2a3.006 3.006 0 0 1-2.829-2H28a3.006 3.006 0 0 1 2.829 2Zm9.917-13A6.01 6.01 0 0 1 34 47h-.917A6.01 6.01 0 0 1 39 42ZM32 36.324A5.732 5.732 0 0 1 34 40a5.693 5.693 0 0 1-2 3.676A5.732 5.732 0 0 1 30 40a5.693 5.693 0 0 1 2-3.676ZM30 47a6.01 6.01 0 0 1-5.917-5H25a6.01 6.01 0 0 1 5.917 5Zm-10 1h.917A6.01 6.01 0 0 1 15 53h-.917A6.01 6.01 0 0 1 20 48Zm-9 5a6.01 6.01 0 0 1-5.917-5H6a6.01 6.01 0 0 1 5.917 5ZM32 23a7 7 0 1 0-7-7 7.009 7.009 0 0 0 7 7Zm0-12a5 5 0 1 1-5 5 5.006 5.006 0 0 1 5-5ZM31 5h2v2h-2zM23.515 8.928l1.414-1.414 1.414 1.414-1.414 1.415zM21 15h2v2h-2zM23.515 23.071l1.414-1.414 1.414 1.414-1.414 1.414zM31 25h2v2h-2zM37.657 23.071l1.414-1.414 1.414 1.414-1.414 1.415zM41 15h2v2h-2zM37.657 8.93l1.414-1.415 1.414 1.414-1.414 1.415zM21.393 6.807l1.415-1.414 1.414 1.414-1.414 1.415zM18 15h2v2h-2zM21.393 25.192l1.414-1.414 1.414 1.414-1.414 1.414zM31 28h2v2h-2zM39.777 25.192l1.415-1.414 1.414 1.414-1.414 1.415zM44 15h2v2h-2zM39.778 6.808l1.414-1.414 1.414 1.414-1.414 1.414z"/>
        </symbol>
</svg>